<mxfile host="Electron" modified="2024-05-09T03:34:37.374Z" agent="Mozilla/5.0 (X11; Linux x86_64) AppleWebKit/537.36 (KHTML, like Gecko) draw.io/24.2.5 Chrome/120.0.6099.109 Electron/28.1.0 Safari/537.36" etag="KtSJv_OAQYpazEtU5Zjg" version="24.2.5" type="device">
  <diagram name="第 1 页" id="9_JWpIq-PywY3eUKFRnk">
    <mxGraphModel dx="795" dy="553" grid="1" gridSize="10" guides="1" tooltips="1" connect="1" arrows="1" fold="1" page="1" pageScale="1" pageWidth="827" pageHeight="1169" math="0" shadow="0">
      <root>
        <mxCell id="0" />
        <mxCell id="1" parent="0" />
        <mxCell id="QVpGONQfelIiySd0KSc2-18" value="" style="verticalLabelPosition=bottom;shadow=0;dashed=0;align=center;html=1;verticalAlign=top;shape=mxgraph.electrical.transistors.nmos_bulk;pointerEvents=1;" vertex="1" parent="1">
          <mxGeometry x="222.5" y="140" width="60" height="100" as="geometry" />
        </mxCell>
        <mxCell id="QVpGONQfelIiySd0KSc2-2" value="" style="pointerEvents=1;verticalLabelPosition=bottom;shadow=0;dashed=0;align=center;html=1;verticalAlign=top;shape=mxgraph.electrical.signal_sources.signal_ground;" vertex="1" parent="1">
          <mxGeometry x="260" y="330" width="45" height="30" as="geometry" />
        </mxCell>
        <mxCell id="QVpGONQfelIiySd0KSc2-3" value="V&lt;sub&gt;dd&lt;/sub&gt;" style="verticalLabelPosition=top;verticalAlign=bottom;shape=mxgraph.electrical.signal_sources.vdd;shadow=0;dashed=0;align=center;strokeWidth=1;fontSize=24;html=1;flipV=1;" vertex="1" parent="1">
          <mxGeometry x="252.5" y="110" width="60" height="40" as="geometry" />
        </mxCell>
        <mxCell id="QVpGONQfelIiySd0KSc2-4" value="" style="endArrow=none;html=1;strokeWidth=1;rounded=0;" edge="1" parent="1">
          <mxGeometry width="100" relative="1" as="geometry">
            <mxPoint x="322.5" y="230" as="sourcePoint" />
            <mxPoint x="332.5" y="230" as="targetPoint" />
          </mxGeometry>
        </mxCell>
        <mxCell id="QVpGONQfelIiySd0KSc2-5" value="" style="verticalLabelPosition=bottom;shadow=0;dashed=0;align=center;html=1;verticalAlign=top;strokeWidth=1;shape=ellipse;" vertex="1" parent="1">
          <mxGeometry x="327.5" y="225" width="10" height="10" as="geometry" />
        </mxCell>
        <mxCell id="QVpGONQfelIiySd0KSc2-6" value="" style="endArrow=none;html=1;strokeWidth=1;rounded=0;" edge="1" parent="1" target="QVpGONQfelIiySd0KSc2-7">
          <mxGeometry width="100" relative="1" as="geometry">
            <mxPoint x="282.5" y="230" as="sourcePoint" />
            <mxPoint x="332.5" y="230" as="targetPoint" />
          </mxGeometry>
        </mxCell>
        <mxCell id="QVpGONQfelIiySd0KSc2-7" value="" style="shape=waypoint;sketch=0;fillStyle=solid;size=6;pointerEvents=1;points=[];fillColor=none;resizable=0;rotatable=0;perimeter=centerPerimeter;snapToPoint=1;" vertex="1" parent="1">
          <mxGeometry x="272.5" y="220" width="20" height="20" as="geometry" />
        </mxCell>
        <mxCell id="QVpGONQfelIiySd0KSc2-8" value="" style="endArrow=none;html=1;strokeWidth=1;rounded=0;" edge="1" parent="1" source="QVpGONQfelIiySd0KSc2-7">
          <mxGeometry width="100" relative="1" as="geometry">
            <mxPoint x="282.5" y="230" as="sourcePoint" />
            <mxPoint x="322.5" y="230" as="targetPoint" />
          </mxGeometry>
        </mxCell>
        <mxCell id="QVpGONQfelIiySd0KSc2-9" value="&lt;font style=&quot;font-size: 20px;&quot;&gt;V&lt;/font&gt;&lt;font style=&quot;font-size: 16.6667px;&quot;&gt;out&lt;/font&gt;" style="text;html=1;align=center;verticalAlign=middle;whiteSpace=wrap;rounded=0;" vertex="1" parent="1">
          <mxGeometry x="320" y="235" width="60" height="30" as="geometry" />
        </mxCell>
        <mxCell id="QVpGONQfelIiySd0KSc2-10" value="&lt;span style=&quot;font-size: 20px;&quot;&gt;I&lt;/span&gt;" style="text;html=1;align=center;verticalAlign=middle;whiteSpace=wrap;rounded=0;" vertex="1" parent="1">
          <mxGeometry x="200" y="265" width="60" height="30" as="geometry" />
        </mxCell>
        <mxCell id="QVpGONQfelIiySd0KSc2-12" value="" style="verticalLabelPosition=bottom;shadow=0;dashed=0;align=center;html=1;verticalAlign=top;strokeWidth=1;shape=ellipse;" vertex="1" parent="1">
          <mxGeometry x="217.5" y="185" width="10" height="10" as="geometry" />
        </mxCell>
        <mxCell id="QVpGONQfelIiySd0KSc2-13" value="&lt;font style=&quot;font-size: 20px;&quot;&gt;V&lt;/font&gt;&lt;font style=&quot;font-size: 16.6667px;&quot;&gt;in&lt;/font&gt;" style="text;html=1;align=center;verticalAlign=middle;whiteSpace=wrap;rounded=0;" vertex="1" parent="1">
          <mxGeometry x="190" y="155" width="60" height="30" as="geometry" />
        </mxCell>
        <mxCell id="QVpGONQfelIiySd0KSc2-15" value="" style="pointerEvents=1;verticalLabelPosition=bottom;shadow=0;dashed=0;align=center;html=1;verticalAlign=top;shape=mxgraph.electrical.signal_sources.source;aspect=fixed;points=[[0.5,0,0],[1,0.5,0],[0.5,1,0],[0,0.5,0]];elSignalType=dc1;rotation=90;" vertex="1" parent="1">
          <mxGeometry x="252.5" y="250" width="60" height="60" as="geometry" />
        </mxCell>
        <mxCell id="QVpGONQfelIiySd0KSc2-16" value="" style="endArrow=none;html=1;strokeWidth=1;rounded=0;entryX=1;entryY=1;entryDx=0;entryDy=0;entryPerimeter=0;exitX=0;exitY=0.5;exitDx=0;exitDy=0;exitPerimeter=0;" edge="1" parent="1" source="QVpGONQfelIiySd0KSc2-15">
          <mxGeometry width="100" relative="1" as="geometry">
            <mxPoint x="250" y="270" as="sourcePoint" />
            <mxPoint x="282.5" y="237.14285714285717" as="targetPoint" />
          </mxGeometry>
        </mxCell>
        <mxCell id="QVpGONQfelIiySd0KSc2-17" value="" style="endArrow=none;html=1;strokeWidth=1;rounded=0;entryX=1;entryY=0.5;entryDx=0;entryDy=0;entryPerimeter=0;exitX=0.5;exitY=0;exitDx=0;exitDy=0;exitPerimeter=0;" edge="1" parent="1" source="QVpGONQfelIiySd0KSc2-2" target="QVpGONQfelIiySd0KSc2-15">
          <mxGeometry width="100" relative="1" as="geometry">
            <mxPoint x="305" y="330" as="sourcePoint" />
            <mxPoint x="305" y="317" as="targetPoint" />
          </mxGeometry>
        </mxCell>
        <mxCell id="QVpGONQfelIiySd0KSc2-19" value="" style="pointerEvents=1;verticalLabelPosition=bottom;shadow=0;dashed=0;align=center;html=1;verticalAlign=top;shape=mxgraph.electrical.signal_sources.signal_ground;rotation=-90;" vertex="1" parent="1">
          <mxGeometry x="275" y="175" width="45" height="30" as="geometry" />
        </mxCell>
        <mxCell id="QVpGONQfelIiySd0KSc2-21" value="" style="endArrow=none;html=1;strokeWidth=1;rounded=0;exitX=0;exitY=0.5;exitDx=0;exitDy=0;exitPerimeter=0;" edge="1" parent="1">
          <mxGeometry width="100" relative="1" as="geometry">
            <mxPoint x="70" y="189.99999999999994" as="sourcePoint" />
            <mxPoint x="180" y="190" as="targetPoint" />
          </mxGeometry>
        </mxCell>
        <mxCell id="QVpGONQfelIiySd0KSc2-25" value="" style="pointerEvents=1;verticalLabelPosition=bottom;shadow=0;dashed=0;align=center;html=1;verticalAlign=top;shape=mxgraph.electrical.waveforms.sine_wave;" vertex="1" parent="1">
          <mxGeometry x="80" y="156.91" width="90" height="66.18" as="geometry" />
        </mxCell>
        <mxCell id="QVpGONQfelIiySd0KSc2-26" value="" style="endArrow=none;html=1;strokeWidth=1;rounded=0;exitX=0;exitY=0.5;exitDx=0;exitDy=0;exitPerimeter=0;" edge="1" parent="1">
          <mxGeometry width="100" relative="1" as="geometry">
            <mxPoint x="375" y="229.70999999999995" as="sourcePoint" />
            <mxPoint x="485" y="229.71" as="targetPoint" />
          </mxGeometry>
        </mxCell>
        <mxCell id="QVpGONQfelIiySd0KSc2-27" value="" style="pointerEvents=1;verticalLabelPosition=bottom;shadow=0;dashed=0;align=center;html=1;verticalAlign=top;shape=mxgraph.electrical.waveforms.sine_wave;connectable=0;" vertex="1" parent="1">
          <mxGeometry x="380" y="197" width="90" height="66.18" as="geometry" />
        </mxCell>
        <mxCell id="QVpGONQfelIiySd0KSc2-28" value="" style="endArrow=none;dashed=1;html=1;rounded=0;" edge="1" parent="1">
          <mxGeometry width="50" height="50" relative="1" as="geometry">
            <mxPoint x="370" y="189.89" as="sourcePoint" />
            <mxPoint x="490" y="189.89" as="targetPoint" />
          </mxGeometry>
        </mxCell>
        <mxCell id="QVpGONQfelIiySd0KSc2-29" value="" style="endArrow=classic;startArrow=classic;html=1;rounded=0;" edge="1" parent="1">
          <mxGeometry width="50" height="50" relative="1" as="geometry">
            <mxPoint x="460" y="230" as="sourcePoint" />
            <mxPoint x="460" y="190" as="targetPoint" />
            <Array as="points">
              <mxPoint x="460" y="200" />
              <mxPoint x="460" y="195" />
            </Array>
          </mxGeometry>
        </mxCell>
        <mxCell id="QVpGONQfelIiySd0KSc2-30" value="&lt;font style=&quot;font-size: 20px;&quot;&gt;V&lt;/font&gt;&lt;font style=&quot;font-size: 16.6667px;&quot;&gt;&lt;sub&gt;GS&lt;/sub&gt;&lt;/font&gt;" style="text;html=1;align=center;verticalAlign=middle;whiteSpace=wrap;rounded=0;" vertex="1" parent="1">
          <mxGeometry x="430" y="156.91" width="60" height="30" as="geometry" />
        </mxCell>
      </root>
    </mxGraphModel>
  </diagram>
</mxfile>
